<svg width="871" height="306" viewBox="0 0 871 306" fill="none" xmlns="http://www.w3.org/2000/svg">
<path fill-rule="evenodd" clip-rule="evenodd" d="M30 24H278.906C295.465 24.0195 308.887 37.4375 308.906 54V251.422C308.887 267.984 295.465 281.402 278.906 281.422H30C13.4375 281.402 0.0195312 267.984 0 251.422V54C0.0195312 37.4375 13.4375 24.0195 30 24ZM432 250.086L328.906 193.801V112.266L432 55.9805V250.086ZM175.223 133.661C178.345 133.661 180.875 131.13 180.875 128.009C180.875 124.888 178.345 122.357 175.223 122.357C172.102 122.357 169.571 124.888 169.571 128.009C169.571 131.13 172.102 133.661 175.223 133.661ZM154.501 92.2143C127.795 92.2143 112.143 100.952 105.919 105.402L91.3746 88.3598C90.6903 87.5569 90.3672 86.5073 90.4817 85.4586C90.5834 84.4124 91.1174 83.4563 91.9549 82.8211L109.287 69.6675V88.4465C109.287 90.5274 110.974 92.2143 113.055 92.2143C115.136 92.2143 116.823 90.5274 116.823 88.4465V62.2486C116.795 57.7559 119.455 53.6814 123.579 51.8983C133.458 48.2243 143.97 46.559 154.501 47.0001C165.033 46.5595 175.547 48.2248 185.428 51.8983C189.55 53.6826 192.208 57.7568 192.18 62.2486V88.4465C192.18 90.5274 193.867 92.2143 195.948 92.2143C198.029 92.2143 199.716 90.5274 199.716 88.4465V69.6637L217.055 82.8135C217.894 83.448 218.43 84.4043 218.532 85.451C218.647 86.4987 218.324 87.5472 217.639 88.3485L203.084 105.402C196.86 100.952 181.208 92.2143 154.501 92.2143ZM144.348 59.4535C142.894 60.9069 142.874 63.2569 144.302 64.7354L149.174 69.6072L144.302 74.479C142.874 75.9575 142.894 78.3075 144.348 79.7609C145.801 81.2143 148.151 81.2347 149.629 79.8068L154.501 74.9349L159.373 79.8068C160.319 80.7863 161.72 81.1791 163.037 80.8343C164.355 80.4895 165.384 79.4607 165.728 78.1433C166.073 76.826 165.68 75.425 164.701 74.479L159.829 69.6072L164.701 64.7354C165.68 63.7893 166.073 62.3884 165.728 61.0711C165.384 59.7537 164.355 58.7249 163.037 58.3801C161.72 58.0353 160.319 58.4281 159.373 59.4076L154.501 64.2794L149.629 59.4076C148.151 57.9797 145.801 58.0001 144.348 59.4535ZM133.777 133.661C136.898 133.661 139.429 131.13 139.429 128.009C139.429 124.888 136.898 122.357 133.777 122.357C130.655 122.357 128.125 124.888 128.125 128.009C128.125 131.13 130.655 133.661 133.777 133.661ZM214.179 197.782C215.267 197.602 216.38 197.908 217.223 198.619C218.065 199.332 218.551 200.379 218.554 201.482C218.543 209.213 213.79 216.145 206.583 218.942C202.558 215.757 196.871 215.757 192.845 218.942C185.638 216.145 180.885 209.213 180.875 201.482V171.339C180.875 169.258 179.188 167.571 177.107 167.571C175.026 167.571 173.339 169.258 173.339 171.339V227.857C173.339 234.1 178.4 239.161 184.643 239.161C190.886 239.161 195.946 234.1 195.946 227.857C195.946 225.776 197.633 224.089 199.714 224.089C201.795 224.089 203.482 225.776 203.482 227.857C203.482 238.262 195.047 246.696 184.643 246.696C174.238 246.696 165.804 238.262 165.804 227.857V175.107C165.804 173.026 164.117 171.339 162.036 171.339C159.955 171.339 158.268 173.026 158.268 175.107V254.232C158.268 256.313 156.581 258 154.5 258C152.419 258 150.732 256.313 150.732 254.232V175.107C150.732 173.026 149.045 171.339 146.964 171.339C144.883 171.339 143.196 173.026 143.196 175.107V227.857C143.196 238.262 134.762 246.696 124.357 246.696C113.952 246.696 105.518 238.262 105.518 227.857C105.518 225.776 107.205 224.089 109.286 224.089C111.367 224.089 113.054 225.776 113.054 227.857C113.054 234.1 118.114 239.161 124.357 239.161C130.6 239.161 135.661 234.1 135.661 227.857V171.339C135.661 169.258 133.974 167.571 131.893 167.571C129.812 167.571 128.125 169.258 128.125 171.339V201.482C128.114 209.214 123.359 216.147 116.151 218.942C112.125 215.757 106.438 215.757 102.413 218.942C95.4937 216.224 90.8105 209.702 90.4464 202.277C90.2495 200.277 91.4727 198.409 93.3853 197.79C94.4908 197.547 95.6467 197.812 96.5365 198.511C97.4263 199.211 97.9565 200.272 97.9821 201.403C98.0588 206.933 102.039 211.635 107.481 212.624C110.749 213.152 114.084 212.222 116.606 210.078C119.128 207.934 120.584 204.792 120.589 201.482V174.956C120.509 169.149 118.562 163.521 115.035 158.905C107.508 148.665 104.247 135.903 105.94 123.307C106.439 119.71 107.346 116.182 108.645 112.791C111.701 110.3 126.339 99.75 154.5 99.75C182.759 99.75 197.405 110.383 200.377 112.806C206.265 128.503 203.672 146.124 193.512 159.459C190.132 164.07 188.342 169.654 188.411 175.371V201.181C188.359 206.438 191.861 211.068 196.934 212.45C200.296 213.29 203.859 212.546 206.604 210.43C209.349 208.313 210.975 205.057 211.018 201.591C211.03 199.731 212.353 198.137 214.179 197.782ZM120.589 128.009C120.589 135.292 126.493 141.196 133.777 141.196C137.274 141.196 140.629 139.807 143.102 137.334C145.575 134.861 146.964 131.506 146.964 128.009C146.964 120.726 141.06 114.821 133.777 114.821C126.493 114.821 120.589 120.726 120.589 128.009ZM162.036 128.009C162.036 135.292 167.94 141.196 175.223 141.196C178.721 141.196 182.075 139.807 184.548 137.334C187.021 134.861 188.411 131.506 188.411 128.009C188.411 120.726 182.506 114.821 175.223 114.821C167.94 114.821 162.036 120.726 162.036 128.009Z" fill="#1DCA8B"/>
<path d="M553.464 96.6C553.464 103.8 552.072 110.616 549.288 117.048C546.504 123.384 542.712 128.904 537.912 133.608C533.112 138.216 527.4 141.864 520.776 144.552C514.152 147.24 507.096 148.584 499.608 148.584C492.12 148.584 485.064 147.24 478.44 144.552C471.816 141.864 466.104 138.216 461.304 133.608C456.504 128.904 452.712 123.384 449.928 117.048C447.144 110.616 445.752 103.8 445.752 96.6C445.752 89.4 447.144 82.632 449.928 76.296C452.712 69.864 456.504 64.344 461.304 59.736C466.104 55.032 471.816 51.336 478.44 48.648C485.064 45.96 492.12 44.616 499.608 44.616C507.096 44.616 514.152 45.96 520.776 48.648C527.4 51.336 533.112 55.032 537.912 59.736C542.712 64.344 546.504 69.864 549.288 76.296C552.072 82.632 553.464 89.4 553.464 96.6ZM527.976 96.6C527.976 92.472 527.256 88.632 525.816 85.08C524.376 81.432 522.36 78.312 519.768 75.72C517.272 73.128 514.296 71.112 510.84 69.672C507.384 68.136 503.64 67.368 499.608 67.368C495.576 67.368 491.832 68.136 488.376 69.672C484.92 71.112 481.896 73.128 479.304 75.72C476.808 78.312 474.84 81.432 473.4 85.08C471.96 88.632 471.24 92.472 471.24 96.6C471.24 100.728 471.96 104.616 473.4 108.264C474.84 111.816 476.808 114.888 479.304 117.48C481.896 120.072 484.92 122.136 488.376 123.672C491.832 125.112 495.576 125.832 499.608 125.832C503.64 125.832 507.384 125.112 510.84 123.672C514.296 122.136 517.272 120.072 519.768 117.48C522.36 114.888 524.376 111.816 525.816 108.264C527.256 104.616 527.976 100.728 527.976 96.6ZM618.041 125.544C622.937 125.544 627.449 124.488 631.577 122.376C635.801 120.264 639.593 117.144 642.953 113.016L659.225 129C654.521 134.856 648.329 139.56 640.649 143.112C633.065 146.664 625.241 148.44 617.177 148.44C609.593 148.44 602.441 147.096 595.721 144.408C589.097 141.72 583.385 138.072 578.585 133.464C573.785 128.856 569.993 123.384 567.209 117.048C564.425 110.712 563.033 103.896 563.033 96.6C563.033 89.304 564.425 82.488 567.209 76.152C569.993 69.72 573.785 64.2 578.585 59.592C583.481 54.984 589.241 51.336 595.865 48.648C602.489 45.96 609.593 44.616 617.177 44.616C621.305 44.616 625.433 45.096 629.561 46.056C633.689 47.016 637.625 48.36 641.369 50.088C645.113 51.72 648.569 53.784 651.737 56.28C654.905 58.68 657.641 61.368 659.945 64.344L643.241 80.76C639.689 76.344 635.705 73.032 631.289 70.824C626.969 68.52 622.265 67.368 617.177 67.368C613.145 67.368 609.353 68.136 605.801 69.672C602.345 71.112 599.321 73.128 596.729 75.72C594.233 78.312 592.217 81.432 590.681 85.08C589.241 88.632 588.521 92.472 588.521 96.6C588.521 100.728 589.241 104.568 590.681 108.12C592.217 111.576 594.281 114.6 596.873 117.192C599.561 119.784 602.681 121.848 606.233 123.384C609.881 124.824 613.817 125.544 618.041 125.544ZM665.358 68.088V46.2H756.078V68.088H723.102V147H698.334V68.088H665.358ZM865.37 96.6C865.37 103.8 863.978 110.616 861.194 117.048C858.41 123.384 854.618 128.904 849.818 133.608C845.018 138.216 839.306 141.864 832.682 144.552C826.058 147.24 819.002 148.584 811.514 148.584C804.026 148.584 796.97 147.24 790.346 144.552C783.722 141.864 778.01 138.216 773.21 133.608C768.41 128.904 764.618 123.384 761.834 117.048C759.05 110.616 757.658 103.8 757.658 96.6C757.658 89.4 759.05 82.632 761.834 76.296C764.618 69.864 768.41 64.344 773.21 59.736C778.01 55.032 783.722 51.336 790.346 48.648C796.97 45.96 804.026 44.616 811.514 44.616C819.002 44.616 826.058 45.96 832.682 48.648C839.306 51.336 845.018 55.032 849.818 59.736C854.618 64.344 858.41 69.864 861.194 76.296C863.978 82.632 865.37 89.4 865.37 96.6ZM839.882 96.6C839.882 92.472 839.162 88.632 837.722 85.08C836.282 81.432 834.266 78.312 831.674 75.72C829.178 73.128 826.202 71.112 822.746 69.672C819.29 68.136 815.546 67.368 811.514 67.368C807.482 67.368 803.738 68.136 800.282 69.672C796.826 71.112 793.802 73.128 791.21 75.72C788.714 78.312 786.746 81.432 785.306 85.08C783.866 88.632 783.146 92.472 783.146 96.6C783.146 100.728 783.866 104.616 785.306 108.264C786.746 111.816 788.714 114.888 791.21 117.48C793.802 120.072 796.826 122.136 800.282 123.672C803.738 125.112 807.482 125.832 811.514 125.832C815.546 125.832 819.29 125.112 822.746 123.672C826.202 122.136 829.178 120.072 831.674 117.48C834.266 114.888 836.282 111.816 837.722 108.264C839.162 104.616 839.882 100.728 839.882 96.6Z" fill="#1DCA8B"/>
<path d="M516.224 254.8L483.104 193.024V262H460.352V161.2H491.6L516.512 208.72L541.424 161.2H572.672V262H549.344V193.312L516.224 254.8ZM693.558 211.6C693.558 218.8 692.166 225.616 689.382 232.048C686.598 238.384 682.806 243.904 678.006 248.608C673.206 253.216 667.494 256.864 660.87 259.552C654.246 262.24 647.19 263.584 639.702 263.584C632.214 263.584 625.158 262.24 618.534 259.552C611.91 256.864 606.198 253.216 601.398 248.608C596.598 243.904 592.806 238.384 590.022 232.048C587.238 225.616 585.846 218.8 585.846 211.6C585.846 204.4 587.238 197.632 590.022 191.296C592.806 184.864 596.598 179.344 601.398 174.736C606.198 170.032 611.91 166.336 618.534 163.648C625.158 160.96 632.214 159.616 639.702 159.616C647.19 159.616 654.246 160.96 660.87 163.648C667.494 166.336 673.206 170.032 678.006 174.736C682.806 179.344 686.598 184.864 689.382 191.296C692.166 197.632 693.558 204.4 693.558 211.6ZM668.07 211.6C668.07 207.472 667.35 203.632 665.91 200.08C664.47 196.432 662.454 193.312 659.862 190.72C657.366 188.128 654.39 186.112 650.934 184.672C647.478 183.136 643.734 182.368 639.702 182.368C635.67 182.368 631.926 183.136 628.47 184.672C625.014 186.112 621.99 188.128 619.398 190.72C616.902 193.312 614.934 196.432 613.494 200.08C612.054 203.632 611.334 207.472 611.334 211.6C611.334 215.728 612.054 219.616 613.494 223.264C614.934 226.816 616.902 229.888 619.398 232.48C621.99 235.072 625.014 237.136 628.47 238.672C631.926 240.112 635.67 240.832 639.702 240.832C643.734 240.832 647.478 240.112 650.934 238.672C654.39 237.136 657.366 235.072 659.862 232.48C662.454 229.888 664.47 226.816 665.91 223.264C667.35 219.616 668.07 215.728 668.07 211.6ZM732.353 262L691.601 161.2H718.385L747.041 236.224L776.273 161.2H802.049L760.721 262H732.353ZM810.679 230.896L807.799 154.72H831.415L828.535 230.896H810.679ZM819.607 263.584C815.959 263.584 812.791 262.288 810.103 259.696C807.511 257.008 806.215 253.84 806.215 250.192C806.215 246.544 807.511 243.424 810.103 240.832C812.791 238.144 815.959 236.8 819.607 236.8C823.255 236.8 826.375 238.144 828.967 240.832C831.655 243.424 832.999 246.544 832.999 250.192C832.999 253.84 831.655 257.008 828.967 259.696C826.375 262.288 823.255 263.584 819.607 263.584Z" fill="#1DCA8B"/>
</svg>
